%
M48
M72
T01C0.0236
T02C0.0320
T03C0.0400
T04C0.0472
T05C0.0512
T06C0.0660
T07C0.1102
%
T01
X8060Y11993
X8660Y14193
X7660Y15093
X6260Y17593
X4360Y18693
X11460Y10393
X11860Y16093
X12060Y16893
X13460Y16193
T02
X12060Y9093
X12060Y8093
X8660Y8093
X8660Y9093
X5260Y9093
X5260Y8093
X5060Y16193
X6060Y16193
T03
X4052Y5700
X5467Y4286
T04
X7391Y21293
X9360Y21293
X11328Y21293
T05
X10360Y11493
T06
X10640Y5193
X12200Y5193
X9080Y5193
X7520Y5193
T07
X3660Y3593
X3660Y21993
X15460Y21993
X15460Y3593
M30
