G75*
%MOIN*%
%OFA0B0*%
%FSLAX25Y25*%
%IPPOS*%
%LPD*%
%AMOC8*
5,1,8,0,0,1.08239X$1,22.5*
%
%ADD10C,0.00000*%
D10*
X0026894Y0024933D02*
X0164595Y0024933D01*
X0164595Y0229854D01*
X0026894Y0229854D01*
X0026894Y0024933D01*
X0031083Y0035933D02*
X0031085Y0036081D01*
X0031091Y0036229D01*
X0031101Y0036377D01*
X0031115Y0036524D01*
X0031133Y0036671D01*
X0031154Y0036817D01*
X0031180Y0036963D01*
X0031210Y0037108D01*
X0031243Y0037252D01*
X0031281Y0037395D01*
X0031322Y0037537D01*
X0031367Y0037678D01*
X0031415Y0037818D01*
X0031468Y0037957D01*
X0031524Y0038094D01*
X0031584Y0038229D01*
X0031647Y0038363D01*
X0031714Y0038495D01*
X0031785Y0038625D01*
X0031859Y0038753D01*
X0031936Y0038879D01*
X0032017Y0039003D01*
X0032101Y0039125D01*
X0032188Y0039244D01*
X0032279Y0039361D01*
X0032373Y0039476D01*
X0032469Y0039588D01*
X0032569Y0039698D01*
X0032671Y0039804D01*
X0032777Y0039908D01*
X0032885Y0040009D01*
X0032996Y0040107D01*
X0033109Y0040203D01*
X0033225Y0040295D01*
X0033343Y0040384D01*
X0033464Y0040469D01*
X0033587Y0040552D01*
X0033712Y0040631D01*
X0033839Y0040707D01*
X0033968Y0040779D01*
X0034099Y0040848D01*
X0034232Y0040913D01*
X0034367Y0040974D01*
X0034503Y0041032D01*
X0034640Y0041087D01*
X0034779Y0041137D01*
X0034920Y0041184D01*
X0035061Y0041227D01*
X0035204Y0041267D01*
X0035348Y0041302D01*
X0035492Y0041334D01*
X0035638Y0041361D01*
X0035784Y0041385D01*
X0035931Y0041405D01*
X0036078Y0041421D01*
X0036225Y0041433D01*
X0036373Y0041441D01*
X0036521Y0041445D01*
X0036669Y0041445D01*
X0036817Y0041441D01*
X0036965Y0041433D01*
X0037112Y0041421D01*
X0037259Y0041405D01*
X0037406Y0041385D01*
X0037552Y0041361D01*
X0037698Y0041334D01*
X0037842Y0041302D01*
X0037986Y0041267D01*
X0038129Y0041227D01*
X0038270Y0041184D01*
X0038411Y0041137D01*
X0038550Y0041087D01*
X0038687Y0041032D01*
X0038823Y0040974D01*
X0038958Y0040913D01*
X0039091Y0040848D01*
X0039222Y0040779D01*
X0039351Y0040707D01*
X0039478Y0040631D01*
X0039603Y0040552D01*
X0039726Y0040469D01*
X0039847Y0040384D01*
X0039965Y0040295D01*
X0040081Y0040203D01*
X0040194Y0040107D01*
X0040305Y0040009D01*
X0040413Y0039908D01*
X0040519Y0039804D01*
X0040621Y0039698D01*
X0040721Y0039588D01*
X0040817Y0039476D01*
X0040911Y0039361D01*
X0041002Y0039244D01*
X0041089Y0039125D01*
X0041173Y0039003D01*
X0041254Y0038879D01*
X0041331Y0038753D01*
X0041405Y0038625D01*
X0041476Y0038495D01*
X0041543Y0038363D01*
X0041606Y0038229D01*
X0041666Y0038094D01*
X0041722Y0037957D01*
X0041775Y0037818D01*
X0041823Y0037678D01*
X0041868Y0037537D01*
X0041909Y0037395D01*
X0041947Y0037252D01*
X0041980Y0037108D01*
X0042010Y0036963D01*
X0042036Y0036817D01*
X0042057Y0036671D01*
X0042075Y0036524D01*
X0042089Y0036377D01*
X0042099Y0036229D01*
X0042105Y0036081D01*
X0042107Y0035933D01*
X0042105Y0035785D01*
X0042099Y0035637D01*
X0042089Y0035489D01*
X0042075Y0035342D01*
X0042057Y0035195D01*
X0042036Y0035049D01*
X0042010Y0034903D01*
X0041980Y0034758D01*
X0041947Y0034614D01*
X0041909Y0034471D01*
X0041868Y0034329D01*
X0041823Y0034188D01*
X0041775Y0034048D01*
X0041722Y0033909D01*
X0041666Y0033772D01*
X0041606Y0033637D01*
X0041543Y0033503D01*
X0041476Y0033371D01*
X0041405Y0033241D01*
X0041331Y0033113D01*
X0041254Y0032987D01*
X0041173Y0032863D01*
X0041089Y0032741D01*
X0041002Y0032622D01*
X0040911Y0032505D01*
X0040817Y0032390D01*
X0040721Y0032278D01*
X0040621Y0032168D01*
X0040519Y0032062D01*
X0040413Y0031958D01*
X0040305Y0031857D01*
X0040194Y0031759D01*
X0040081Y0031663D01*
X0039965Y0031571D01*
X0039847Y0031482D01*
X0039726Y0031397D01*
X0039603Y0031314D01*
X0039478Y0031235D01*
X0039351Y0031159D01*
X0039222Y0031087D01*
X0039091Y0031018D01*
X0038958Y0030953D01*
X0038823Y0030892D01*
X0038687Y0030834D01*
X0038550Y0030779D01*
X0038411Y0030729D01*
X0038270Y0030682D01*
X0038129Y0030639D01*
X0037986Y0030599D01*
X0037842Y0030564D01*
X0037698Y0030532D01*
X0037552Y0030505D01*
X0037406Y0030481D01*
X0037259Y0030461D01*
X0037112Y0030445D01*
X0036965Y0030433D01*
X0036817Y0030425D01*
X0036669Y0030421D01*
X0036521Y0030421D01*
X0036373Y0030425D01*
X0036225Y0030433D01*
X0036078Y0030445D01*
X0035931Y0030461D01*
X0035784Y0030481D01*
X0035638Y0030505D01*
X0035492Y0030532D01*
X0035348Y0030564D01*
X0035204Y0030599D01*
X0035061Y0030639D01*
X0034920Y0030682D01*
X0034779Y0030729D01*
X0034640Y0030779D01*
X0034503Y0030834D01*
X0034367Y0030892D01*
X0034232Y0030953D01*
X0034099Y0031018D01*
X0033968Y0031087D01*
X0033839Y0031159D01*
X0033712Y0031235D01*
X0033587Y0031314D01*
X0033464Y0031397D01*
X0033343Y0031482D01*
X0033225Y0031571D01*
X0033109Y0031663D01*
X0032996Y0031759D01*
X0032885Y0031857D01*
X0032777Y0031958D01*
X0032671Y0032062D01*
X0032569Y0032168D01*
X0032469Y0032278D01*
X0032373Y0032390D01*
X0032279Y0032505D01*
X0032188Y0032622D01*
X0032101Y0032741D01*
X0032017Y0032863D01*
X0031936Y0032987D01*
X0031859Y0033113D01*
X0031785Y0033241D01*
X0031714Y0033371D01*
X0031647Y0033503D01*
X0031584Y0033637D01*
X0031524Y0033772D01*
X0031468Y0033909D01*
X0031415Y0034048D01*
X0031367Y0034188D01*
X0031322Y0034329D01*
X0031281Y0034471D01*
X0031243Y0034614D01*
X0031210Y0034758D01*
X0031180Y0034903D01*
X0031154Y0035049D01*
X0031133Y0035195D01*
X0031115Y0035342D01*
X0031101Y0035489D01*
X0031091Y0035637D01*
X0031085Y0035785D01*
X0031083Y0035933D01*
X0101036Y0114933D02*
X0101038Y0115034D01*
X0101044Y0115135D01*
X0101054Y0115236D01*
X0101068Y0115336D01*
X0101086Y0115435D01*
X0101108Y0115534D01*
X0101133Y0115632D01*
X0101163Y0115729D01*
X0101196Y0115824D01*
X0101233Y0115918D01*
X0101274Y0116011D01*
X0101318Y0116102D01*
X0101366Y0116191D01*
X0101418Y0116278D01*
X0101473Y0116363D01*
X0101531Y0116445D01*
X0101592Y0116526D01*
X0101657Y0116604D01*
X0101724Y0116679D01*
X0101794Y0116751D01*
X0101868Y0116821D01*
X0101944Y0116888D01*
X0102022Y0116952D01*
X0102103Y0117012D01*
X0102186Y0117069D01*
X0102272Y0117123D01*
X0102360Y0117174D01*
X0102449Y0117221D01*
X0102540Y0117265D01*
X0102633Y0117304D01*
X0102728Y0117341D01*
X0102823Y0117373D01*
X0102920Y0117402D01*
X0103019Y0117426D01*
X0103117Y0117447D01*
X0103217Y0117464D01*
X0103317Y0117477D01*
X0103418Y0117486D01*
X0103519Y0117491D01*
X0103620Y0117492D01*
X0103721Y0117489D01*
X0103822Y0117482D01*
X0103923Y0117471D01*
X0104023Y0117456D01*
X0104122Y0117437D01*
X0104221Y0117414D01*
X0104318Y0117388D01*
X0104415Y0117357D01*
X0104510Y0117323D01*
X0104603Y0117285D01*
X0104696Y0117243D01*
X0104786Y0117198D01*
X0104875Y0117149D01*
X0104961Y0117097D01*
X0105045Y0117041D01*
X0105128Y0116982D01*
X0105207Y0116920D01*
X0105285Y0116855D01*
X0105359Y0116787D01*
X0105431Y0116715D01*
X0105500Y0116642D01*
X0105566Y0116565D01*
X0105629Y0116486D01*
X0105689Y0116404D01*
X0105745Y0116320D01*
X0105798Y0116234D01*
X0105848Y0116146D01*
X0105894Y0116056D01*
X0105937Y0115965D01*
X0105976Y0115871D01*
X0106011Y0115776D01*
X0106042Y0115680D01*
X0106070Y0115583D01*
X0106094Y0115485D01*
X0106114Y0115386D01*
X0106130Y0115286D01*
X0106142Y0115185D01*
X0106150Y0115085D01*
X0106154Y0114984D01*
X0106154Y0114882D01*
X0106150Y0114781D01*
X0106142Y0114681D01*
X0106130Y0114580D01*
X0106114Y0114480D01*
X0106094Y0114381D01*
X0106070Y0114283D01*
X0106042Y0114186D01*
X0106011Y0114090D01*
X0105976Y0113995D01*
X0105937Y0113901D01*
X0105894Y0113810D01*
X0105848Y0113720D01*
X0105798Y0113632D01*
X0105745Y0113546D01*
X0105689Y0113462D01*
X0105629Y0113380D01*
X0105566Y0113301D01*
X0105500Y0113224D01*
X0105431Y0113151D01*
X0105359Y0113079D01*
X0105285Y0113011D01*
X0105207Y0112946D01*
X0105128Y0112884D01*
X0105045Y0112825D01*
X0104961Y0112769D01*
X0104874Y0112717D01*
X0104786Y0112668D01*
X0104696Y0112623D01*
X0104603Y0112581D01*
X0104510Y0112543D01*
X0104415Y0112509D01*
X0104318Y0112478D01*
X0104221Y0112452D01*
X0104122Y0112429D01*
X0104023Y0112410D01*
X0103923Y0112395D01*
X0103822Y0112384D01*
X0103721Y0112377D01*
X0103620Y0112374D01*
X0103519Y0112375D01*
X0103418Y0112380D01*
X0103317Y0112389D01*
X0103217Y0112402D01*
X0103117Y0112419D01*
X0103019Y0112440D01*
X0102920Y0112464D01*
X0102823Y0112493D01*
X0102728Y0112525D01*
X0102633Y0112562D01*
X0102540Y0112601D01*
X0102449Y0112645D01*
X0102360Y0112692D01*
X0102272Y0112743D01*
X0102186Y0112797D01*
X0102103Y0112854D01*
X0102022Y0112914D01*
X0101944Y0112978D01*
X0101868Y0113045D01*
X0101794Y0113115D01*
X0101724Y0113187D01*
X0101657Y0113262D01*
X0101592Y0113340D01*
X0101531Y0113421D01*
X0101473Y0113503D01*
X0101418Y0113588D01*
X0101366Y0113675D01*
X0101318Y0113764D01*
X0101274Y0113855D01*
X0101233Y0113948D01*
X0101196Y0114042D01*
X0101163Y0114137D01*
X0101133Y0114234D01*
X0101108Y0114332D01*
X0101086Y0114431D01*
X0101068Y0114530D01*
X0101054Y0114630D01*
X0101044Y0114731D01*
X0101038Y0114832D01*
X0101036Y0114933D01*
X0149083Y0035933D02*
X0149085Y0036081D01*
X0149091Y0036229D01*
X0149101Y0036377D01*
X0149115Y0036524D01*
X0149133Y0036671D01*
X0149154Y0036817D01*
X0149180Y0036963D01*
X0149210Y0037108D01*
X0149243Y0037252D01*
X0149281Y0037395D01*
X0149322Y0037537D01*
X0149367Y0037678D01*
X0149415Y0037818D01*
X0149468Y0037957D01*
X0149524Y0038094D01*
X0149584Y0038229D01*
X0149647Y0038363D01*
X0149714Y0038495D01*
X0149785Y0038625D01*
X0149859Y0038753D01*
X0149936Y0038879D01*
X0150017Y0039003D01*
X0150101Y0039125D01*
X0150188Y0039244D01*
X0150279Y0039361D01*
X0150373Y0039476D01*
X0150469Y0039588D01*
X0150569Y0039698D01*
X0150671Y0039804D01*
X0150777Y0039908D01*
X0150885Y0040009D01*
X0150996Y0040107D01*
X0151109Y0040203D01*
X0151225Y0040295D01*
X0151343Y0040384D01*
X0151464Y0040469D01*
X0151587Y0040552D01*
X0151712Y0040631D01*
X0151839Y0040707D01*
X0151968Y0040779D01*
X0152099Y0040848D01*
X0152232Y0040913D01*
X0152367Y0040974D01*
X0152503Y0041032D01*
X0152640Y0041087D01*
X0152779Y0041137D01*
X0152920Y0041184D01*
X0153061Y0041227D01*
X0153204Y0041267D01*
X0153348Y0041302D01*
X0153492Y0041334D01*
X0153638Y0041361D01*
X0153784Y0041385D01*
X0153931Y0041405D01*
X0154078Y0041421D01*
X0154225Y0041433D01*
X0154373Y0041441D01*
X0154521Y0041445D01*
X0154669Y0041445D01*
X0154817Y0041441D01*
X0154965Y0041433D01*
X0155112Y0041421D01*
X0155259Y0041405D01*
X0155406Y0041385D01*
X0155552Y0041361D01*
X0155698Y0041334D01*
X0155842Y0041302D01*
X0155986Y0041267D01*
X0156129Y0041227D01*
X0156270Y0041184D01*
X0156411Y0041137D01*
X0156550Y0041087D01*
X0156687Y0041032D01*
X0156823Y0040974D01*
X0156958Y0040913D01*
X0157091Y0040848D01*
X0157222Y0040779D01*
X0157351Y0040707D01*
X0157478Y0040631D01*
X0157603Y0040552D01*
X0157726Y0040469D01*
X0157847Y0040384D01*
X0157965Y0040295D01*
X0158081Y0040203D01*
X0158194Y0040107D01*
X0158305Y0040009D01*
X0158413Y0039908D01*
X0158519Y0039804D01*
X0158621Y0039698D01*
X0158721Y0039588D01*
X0158817Y0039476D01*
X0158911Y0039361D01*
X0159002Y0039244D01*
X0159089Y0039125D01*
X0159173Y0039003D01*
X0159254Y0038879D01*
X0159331Y0038753D01*
X0159405Y0038625D01*
X0159476Y0038495D01*
X0159543Y0038363D01*
X0159606Y0038229D01*
X0159666Y0038094D01*
X0159722Y0037957D01*
X0159775Y0037818D01*
X0159823Y0037678D01*
X0159868Y0037537D01*
X0159909Y0037395D01*
X0159947Y0037252D01*
X0159980Y0037108D01*
X0160010Y0036963D01*
X0160036Y0036817D01*
X0160057Y0036671D01*
X0160075Y0036524D01*
X0160089Y0036377D01*
X0160099Y0036229D01*
X0160105Y0036081D01*
X0160107Y0035933D01*
X0160105Y0035785D01*
X0160099Y0035637D01*
X0160089Y0035489D01*
X0160075Y0035342D01*
X0160057Y0035195D01*
X0160036Y0035049D01*
X0160010Y0034903D01*
X0159980Y0034758D01*
X0159947Y0034614D01*
X0159909Y0034471D01*
X0159868Y0034329D01*
X0159823Y0034188D01*
X0159775Y0034048D01*
X0159722Y0033909D01*
X0159666Y0033772D01*
X0159606Y0033637D01*
X0159543Y0033503D01*
X0159476Y0033371D01*
X0159405Y0033241D01*
X0159331Y0033113D01*
X0159254Y0032987D01*
X0159173Y0032863D01*
X0159089Y0032741D01*
X0159002Y0032622D01*
X0158911Y0032505D01*
X0158817Y0032390D01*
X0158721Y0032278D01*
X0158621Y0032168D01*
X0158519Y0032062D01*
X0158413Y0031958D01*
X0158305Y0031857D01*
X0158194Y0031759D01*
X0158081Y0031663D01*
X0157965Y0031571D01*
X0157847Y0031482D01*
X0157726Y0031397D01*
X0157603Y0031314D01*
X0157478Y0031235D01*
X0157351Y0031159D01*
X0157222Y0031087D01*
X0157091Y0031018D01*
X0156958Y0030953D01*
X0156823Y0030892D01*
X0156687Y0030834D01*
X0156550Y0030779D01*
X0156411Y0030729D01*
X0156270Y0030682D01*
X0156129Y0030639D01*
X0155986Y0030599D01*
X0155842Y0030564D01*
X0155698Y0030532D01*
X0155552Y0030505D01*
X0155406Y0030481D01*
X0155259Y0030461D01*
X0155112Y0030445D01*
X0154965Y0030433D01*
X0154817Y0030425D01*
X0154669Y0030421D01*
X0154521Y0030421D01*
X0154373Y0030425D01*
X0154225Y0030433D01*
X0154078Y0030445D01*
X0153931Y0030461D01*
X0153784Y0030481D01*
X0153638Y0030505D01*
X0153492Y0030532D01*
X0153348Y0030564D01*
X0153204Y0030599D01*
X0153061Y0030639D01*
X0152920Y0030682D01*
X0152779Y0030729D01*
X0152640Y0030779D01*
X0152503Y0030834D01*
X0152367Y0030892D01*
X0152232Y0030953D01*
X0152099Y0031018D01*
X0151968Y0031087D01*
X0151839Y0031159D01*
X0151712Y0031235D01*
X0151587Y0031314D01*
X0151464Y0031397D01*
X0151343Y0031482D01*
X0151225Y0031571D01*
X0151109Y0031663D01*
X0150996Y0031759D01*
X0150885Y0031857D01*
X0150777Y0031958D01*
X0150671Y0032062D01*
X0150569Y0032168D01*
X0150469Y0032278D01*
X0150373Y0032390D01*
X0150279Y0032505D01*
X0150188Y0032622D01*
X0150101Y0032741D01*
X0150017Y0032863D01*
X0149936Y0032987D01*
X0149859Y0033113D01*
X0149785Y0033241D01*
X0149714Y0033371D01*
X0149647Y0033503D01*
X0149584Y0033637D01*
X0149524Y0033772D01*
X0149468Y0033909D01*
X0149415Y0034048D01*
X0149367Y0034188D01*
X0149322Y0034329D01*
X0149281Y0034471D01*
X0149243Y0034614D01*
X0149210Y0034758D01*
X0149180Y0034903D01*
X0149154Y0035049D01*
X0149133Y0035195D01*
X0149115Y0035342D01*
X0149101Y0035489D01*
X0149091Y0035637D01*
X0149085Y0035785D01*
X0149083Y0035933D01*
X0149083Y0219933D02*
X0149085Y0220081D01*
X0149091Y0220229D01*
X0149101Y0220377D01*
X0149115Y0220524D01*
X0149133Y0220671D01*
X0149154Y0220817D01*
X0149180Y0220963D01*
X0149210Y0221108D01*
X0149243Y0221252D01*
X0149281Y0221395D01*
X0149322Y0221537D01*
X0149367Y0221678D01*
X0149415Y0221818D01*
X0149468Y0221957D01*
X0149524Y0222094D01*
X0149584Y0222229D01*
X0149647Y0222363D01*
X0149714Y0222495D01*
X0149785Y0222625D01*
X0149859Y0222753D01*
X0149936Y0222879D01*
X0150017Y0223003D01*
X0150101Y0223125D01*
X0150188Y0223244D01*
X0150279Y0223361D01*
X0150373Y0223476D01*
X0150469Y0223588D01*
X0150569Y0223698D01*
X0150671Y0223804D01*
X0150777Y0223908D01*
X0150885Y0224009D01*
X0150996Y0224107D01*
X0151109Y0224203D01*
X0151225Y0224295D01*
X0151343Y0224384D01*
X0151464Y0224469D01*
X0151587Y0224552D01*
X0151712Y0224631D01*
X0151839Y0224707D01*
X0151968Y0224779D01*
X0152099Y0224848D01*
X0152232Y0224913D01*
X0152367Y0224974D01*
X0152503Y0225032D01*
X0152640Y0225087D01*
X0152779Y0225137D01*
X0152920Y0225184D01*
X0153061Y0225227D01*
X0153204Y0225267D01*
X0153348Y0225302D01*
X0153492Y0225334D01*
X0153638Y0225361D01*
X0153784Y0225385D01*
X0153931Y0225405D01*
X0154078Y0225421D01*
X0154225Y0225433D01*
X0154373Y0225441D01*
X0154521Y0225445D01*
X0154669Y0225445D01*
X0154817Y0225441D01*
X0154965Y0225433D01*
X0155112Y0225421D01*
X0155259Y0225405D01*
X0155406Y0225385D01*
X0155552Y0225361D01*
X0155698Y0225334D01*
X0155842Y0225302D01*
X0155986Y0225267D01*
X0156129Y0225227D01*
X0156270Y0225184D01*
X0156411Y0225137D01*
X0156550Y0225087D01*
X0156687Y0225032D01*
X0156823Y0224974D01*
X0156958Y0224913D01*
X0157091Y0224848D01*
X0157222Y0224779D01*
X0157351Y0224707D01*
X0157478Y0224631D01*
X0157603Y0224552D01*
X0157726Y0224469D01*
X0157847Y0224384D01*
X0157965Y0224295D01*
X0158081Y0224203D01*
X0158194Y0224107D01*
X0158305Y0224009D01*
X0158413Y0223908D01*
X0158519Y0223804D01*
X0158621Y0223698D01*
X0158721Y0223588D01*
X0158817Y0223476D01*
X0158911Y0223361D01*
X0159002Y0223244D01*
X0159089Y0223125D01*
X0159173Y0223003D01*
X0159254Y0222879D01*
X0159331Y0222753D01*
X0159405Y0222625D01*
X0159476Y0222495D01*
X0159543Y0222363D01*
X0159606Y0222229D01*
X0159666Y0222094D01*
X0159722Y0221957D01*
X0159775Y0221818D01*
X0159823Y0221678D01*
X0159868Y0221537D01*
X0159909Y0221395D01*
X0159947Y0221252D01*
X0159980Y0221108D01*
X0160010Y0220963D01*
X0160036Y0220817D01*
X0160057Y0220671D01*
X0160075Y0220524D01*
X0160089Y0220377D01*
X0160099Y0220229D01*
X0160105Y0220081D01*
X0160107Y0219933D01*
X0160105Y0219785D01*
X0160099Y0219637D01*
X0160089Y0219489D01*
X0160075Y0219342D01*
X0160057Y0219195D01*
X0160036Y0219049D01*
X0160010Y0218903D01*
X0159980Y0218758D01*
X0159947Y0218614D01*
X0159909Y0218471D01*
X0159868Y0218329D01*
X0159823Y0218188D01*
X0159775Y0218048D01*
X0159722Y0217909D01*
X0159666Y0217772D01*
X0159606Y0217637D01*
X0159543Y0217503D01*
X0159476Y0217371D01*
X0159405Y0217241D01*
X0159331Y0217113D01*
X0159254Y0216987D01*
X0159173Y0216863D01*
X0159089Y0216741D01*
X0159002Y0216622D01*
X0158911Y0216505D01*
X0158817Y0216390D01*
X0158721Y0216278D01*
X0158621Y0216168D01*
X0158519Y0216062D01*
X0158413Y0215958D01*
X0158305Y0215857D01*
X0158194Y0215759D01*
X0158081Y0215663D01*
X0157965Y0215571D01*
X0157847Y0215482D01*
X0157726Y0215397D01*
X0157603Y0215314D01*
X0157478Y0215235D01*
X0157351Y0215159D01*
X0157222Y0215087D01*
X0157091Y0215018D01*
X0156958Y0214953D01*
X0156823Y0214892D01*
X0156687Y0214834D01*
X0156550Y0214779D01*
X0156411Y0214729D01*
X0156270Y0214682D01*
X0156129Y0214639D01*
X0155986Y0214599D01*
X0155842Y0214564D01*
X0155698Y0214532D01*
X0155552Y0214505D01*
X0155406Y0214481D01*
X0155259Y0214461D01*
X0155112Y0214445D01*
X0154965Y0214433D01*
X0154817Y0214425D01*
X0154669Y0214421D01*
X0154521Y0214421D01*
X0154373Y0214425D01*
X0154225Y0214433D01*
X0154078Y0214445D01*
X0153931Y0214461D01*
X0153784Y0214481D01*
X0153638Y0214505D01*
X0153492Y0214532D01*
X0153348Y0214564D01*
X0153204Y0214599D01*
X0153061Y0214639D01*
X0152920Y0214682D01*
X0152779Y0214729D01*
X0152640Y0214779D01*
X0152503Y0214834D01*
X0152367Y0214892D01*
X0152232Y0214953D01*
X0152099Y0215018D01*
X0151968Y0215087D01*
X0151839Y0215159D01*
X0151712Y0215235D01*
X0151587Y0215314D01*
X0151464Y0215397D01*
X0151343Y0215482D01*
X0151225Y0215571D01*
X0151109Y0215663D01*
X0150996Y0215759D01*
X0150885Y0215857D01*
X0150777Y0215958D01*
X0150671Y0216062D01*
X0150569Y0216168D01*
X0150469Y0216278D01*
X0150373Y0216390D01*
X0150279Y0216505D01*
X0150188Y0216622D01*
X0150101Y0216741D01*
X0150017Y0216863D01*
X0149936Y0216987D01*
X0149859Y0217113D01*
X0149785Y0217241D01*
X0149714Y0217371D01*
X0149647Y0217503D01*
X0149584Y0217637D01*
X0149524Y0217772D01*
X0149468Y0217909D01*
X0149415Y0218048D01*
X0149367Y0218188D01*
X0149322Y0218329D01*
X0149281Y0218471D01*
X0149243Y0218614D01*
X0149210Y0218758D01*
X0149180Y0218903D01*
X0149154Y0219049D01*
X0149133Y0219195D01*
X0149115Y0219342D01*
X0149101Y0219489D01*
X0149091Y0219637D01*
X0149085Y0219785D01*
X0149083Y0219933D01*
X0031083Y0219933D02*
X0031085Y0220081D01*
X0031091Y0220229D01*
X0031101Y0220377D01*
X0031115Y0220524D01*
X0031133Y0220671D01*
X0031154Y0220817D01*
X0031180Y0220963D01*
X0031210Y0221108D01*
X0031243Y0221252D01*
X0031281Y0221395D01*
X0031322Y0221537D01*
X0031367Y0221678D01*
X0031415Y0221818D01*
X0031468Y0221957D01*
X0031524Y0222094D01*
X0031584Y0222229D01*
X0031647Y0222363D01*
X0031714Y0222495D01*
X0031785Y0222625D01*
X0031859Y0222753D01*
X0031936Y0222879D01*
X0032017Y0223003D01*
X0032101Y0223125D01*
X0032188Y0223244D01*
X0032279Y0223361D01*
X0032373Y0223476D01*
X0032469Y0223588D01*
X0032569Y0223698D01*
X0032671Y0223804D01*
X0032777Y0223908D01*
X0032885Y0224009D01*
X0032996Y0224107D01*
X0033109Y0224203D01*
X0033225Y0224295D01*
X0033343Y0224384D01*
X0033464Y0224469D01*
X0033587Y0224552D01*
X0033712Y0224631D01*
X0033839Y0224707D01*
X0033968Y0224779D01*
X0034099Y0224848D01*
X0034232Y0224913D01*
X0034367Y0224974D01*
X0034503Y0225032D01*
X0034640Y0225087D01*
X0034779Y0225137D01*
X0034920Y0225184D01*
X0035061Y0225227D01*
X0035204Y0225267D01*
X0035348Y0225302D01*
X0035492Y0225334D01*
X0035638Y0225361D01*
X0035784Y0225385D01*
X0035931Y0225405D01*
X0036078Y0225421D01*
X0036225Y0225433D01*
X0036373Y0225441D01*
X0036521Y0225445D01*
X0036669Y0225445D01*
X0036817Y0225441D01*
X0036965Y0225433D01*
X0037112Y0225421D01*
X0037259Y0225405D01*
X0037406Y0225385D01*
X0037552Y0225361D01*
X0037698Y0225334D01*
X0037842Y0225302D01*
X0037986Y0225267D01*
X0038129Y0225227D01*
X0038270Y0225184D01*
X0038411Y0225137D01*
X0038550Y0225087D01*
X0038687Y0225032D01*
X0038823Y0224974D01*
X0038958Y0224913D01*
X0039091Y0224848D01*
X0039222Y0224779D01*
X0039351Y0224707D01*
X0039478Y0224631D01*
X0039603Y0224552D01*
X0039726Y0224469D01*
X0039847Y0224384D01*
X0039965Y0224295D01*
X0040081Y0224203D01*
X0040194Y0224107D01*
X0040305Y0224009D01*
X0040413Y0223908D01*
X0040519Y0223804D01*
X0040621Y0223698D01*
X0040721Y0223588D01*
X0040817Y0223476D01*
X0040911Y0223361D01*
X0041002Y0223244D01*
X0041089Y0223125D01*
X0041173Y0223003D01*
X0041254Y0222879D01*
X0041331Y0222753D01*
X0041405Y0222625D01*
X0041476Y0222495D01*
X0041543Y0222363D01*
X0041606Y0222229D01*
X0041666Y0222094D01*
X0041722Y0221957D01*
X0041775Y0221818D01*
X0041823Y0221678D01*
X0041868Y0221537D01*
X0041909Y0221395D01*
X0041947Y0221252D01*
X0041980Y0221108D01*
X0042010Y0220963D01*
X0042036Y0220817D01*
X0042057Y0220671D01*
X0042075Y0220524D01*
X0042089Y0220377D01*
X0042099Y0220229D01*
X0042105Y0220081D01*
X0042107Y0219933D01*
X0042105Y0219785D01*
X0042099Y0219637D01*
X0042089Y0219489D01*
X0042075Y0219342D01*
X0042057Y0219195D01*
X0042036Y0219049D01*
X0042010Y0218903D01*
X0041980Y0218758D01*
X0041947Y0218614D01*
X0041909Y0218471D01*
X0041868Y0218329D01*
X0041823Y0218188D01*
X0041775Y0218048D01*
X0041722Y0217909D01*
X0041666Y0217772D01*
X0041606Y0217637D01*
X0041543Y0217503D01*
X0041476Y0217371D01*
X0041405Y0217241D01*
X0041331Y0217113D01*
X0041254Y0216987D01*
X0041173Y0216863D01*
X0041089Y0216741D01*
X0041002Y0216622D01*
X0040911Y0216505D01*
X0040817Y0216390D01*
X0040721Y0216278D01*
X0040621Y0216168D01*
X0040519Y0216062D01*
X0040413Y0215958D01*
X0040305Y0215857D01*
X0040194Y0215759D01*
X0040081Y0215663D01*
X0039965Y0215571D01*
X0039847Y0215482D01*
X0039726Y0215397D01*
X0039603Y0215314D01*
X0039478Y0215235D01*
X0039351Y0215159D01*
X0039222Y0215087D01*
X0039091Y0215018D01*
X0038958Y0214953D01*
X0038823Y0214892D01*
X0038687Y0214834D01*
X0038550Y0214779D01*
X0038411Y0214729D01*
X0038270Y0214682D01*
X0038129Y0214639D01*
X0037986Y0214599D01*
X0037842Y0214564D01*
X0037698Y0214532D01*
X0037552Y0214505D01*
X0037406Y0214481D01*
X0037259Y0214461D01*
X0037112Y0214445D01*
X0036965Y0214433D01*
X0036817Y0214425D01*
X0036669Y0214421D01*
X0036521Y0214421D01*
X0036373Y0214425D01*
X0036225Y0214433D01*
X0036078Y0214445D01*
X0035931Y0214461D01*
X0035784Y0214481D01*
X0035638Y0214505D01*
X0035492Y0214532D01*
X0035348Y0214564D01*
X0035204Y0214599D01*
X0035061Y0214639D01*
X0034920Y0214682D01*
X0034779Y0214729D01*
X0034640Y0214779D01*
X0034503Y0214834D01*
X0034367Y0214892D01*
X0034232Y0214953D01*
X0034099Y0215018D01*
X0033968Y0215087D01*
X0033839Y0215159D01*
X0033712Y0215235D01*
X0033587Y0215314D01*
X0033464Y0215397D01*
X0033343Y0215482D01*
X0033225Y0215571D01*
X0033109Y0215663D01*
X0032996Y0215759D01*
X0032885Y0215857D01*
X0032777Y0215958D01*
X0032671Y0216062D01*
X0032569Y0216168D01*
X0032469Y0216278D01*
X0032373Y0216390D01*
X0032279Y0216505D01*
X0032188Y0216622D01*
X0032101Y0216741D01*
X0032017Y0216863D01*
X0031936Y0216987D01*
X0031859Y0217113D01*
X0031785Y0217241D01*
X0031714Y0217371D01*
X0031647Y0217503D01*
X0031584Y0217637D01*
X0031524Y0217772D01*
X0031468Y0217909D01*
X0031415Y0218048D01*
X0031367Y0218188D01*
X0031322Y0218329D01*
X0031281Y0218471D01*
X0031243Y0218614D01*
X0031210Y0218758D01*
X0031180Y0218903D01*
X0031154Y0219049D01*
X0031133Y0219195D01*
X0031115Y0219342D01*
X0031101Y0219489D01*
X0031091Y0219637D01*
X0031085Y0219785D01*
X0031083Y0219933D01*
M02*
