%
M48
M72
T01C0.0236
T02C0.0320
T03C0.0400
T04C0.0472
T05C0.0512
T06C0.0660
T07C0.1102
T08C0.5000
%
T01
X16280Y16480
X16980Y18180
X16280Y20180
X14280Y20180
X13480Y20280
X11580Y21080
X11580Y23480
X16680Y22180
X17480Y24080
X19580Y21480
X20380Y24080
X28180Y23280
X28180Y20880
X30080Y20080
X30880Y19980
X32880Y19980
X33280Y21980
X34080Y23880
X36180Y21280
X36980Y23880
X33580Y17980
X32880Y16280
X29480Y17880
X49480Y16280
X50180Y17980
X49480Y19980
X47480Y19980
X46680Y20080
X44780Y20880
X44780Y23280
X49880Y21980
X50680Y23880
X52780Y21280
X53580Y23880
X46080Y17880
X61580Y20980
X63480Y20180
X64280Y20080
X62880Y17980
X66280Y16380
X66980Y18080
X66280Y20080
X66680Y22080
X67480Y23980
X69580Y21380
X70380Y23980
X78180Y23380
X78180Y20980
X80080Y20180
X80880Y20080
X82880Y20080
X83280Y22080
X84080Y23980
X86980Y23980
X86180Y21380
X83580Y18080
X82880Y16380
X79480Y17980
X61580Y23380
X66080Y41880
X66780Y43580
X66080Y45580
X64080Y45580
X63280Y45680
X61380Y46480
X61380Y48880
X62680Y43480
X66480Y47580
X67280Y49480
X69380Y46880
X70180Y49480
X77980Y48880
X77980Y46480
X79880Y45680
X80680Y45580
X82680Y45580
X83080Y47580
X83880Y49480
X85980Y46880
X86780Y49480
X83380Y43580
X82680Y41880
X79280Y43480
X82680Y67480
X83380Y69180
X82680Y71180
X80680Y71180
X79880Y71280
X77980Y72080
X77980Y74480
X83080Y73180
X83880Y75080
X86780Y75080
X85980Y72480
X79280Y69080
X70180Y75080
X69380Y72480
X66480Y73180
X66080Y71180
X66780Y69180
X66080Y67480
X62680Y69080
X63280Y71280
X64080Y71180
X61380Y72080
X61380Y74480
X67280Y75080
X53380Y74980
X52580Y72380
X49680Y73080
X49280Y71080
X49980Y69080
X49280Y67380
X47280Y71080
X46480Y71180
X44580Y71980
X44580Y74380
X45880Y68980
X50480Y74980
X36780Y74980
X35980Y72380
X33880Y74980
X33080Y73080
X32680Y71080
X30680Y71080
X29880Y71180
X27980Y71980
X27980Y74380
X29280Y68980
X32680Y67380
X33380Y69080
X20180Y75180
X19380Y72580
X17280Y75180
X16480Y73280
X16080Y71280
X16780Y69280
X16080Y67580
X12680Y69180
X13280Y71380
X14080Y71280
X11380Y72180
X11380Y74580
X15880Y92880
X16580Y94580
X15880Y96580
X13880Y96580
X13080Y96680
X12480Y94480
X11180Y97480
X11180Y99880
X16280Y98580
X17080Y100480
X19980Y100480
X19180Y97880
X27780Y97280
X29680Y96480
X30480Y96380
X32480Y96380
X32880Y98380
X33680Y100280
X36580Y100280
X35780Y97680
X33180Y94380
X32480Y92680
X29080Y94280
X27780Y99680
X44380Y99680
X44380Y97280
X46280Y96480
X47080Y96380
X49080Y96380
X49480Y98380
X50280Y100280
X53180Y100280
X52380Y97680
X49780Y94380
X49080Y92680
X45680Y94280
X61180Y99780
X61180Y97380
X63080Y96580
X63880Y96480
X65880Y96480
X66580Y94480
X65880Y92780
X62480Y94380
X66280Y98480
X67080Y100380
X69980Y100380
X69180Y97780
X77780Y97380
X79680Y96580
X80480Y96480
X82480Y96480
X83180Y94480
X82480Y92780
X79080Y94380
X82880Y98480
X83680Y100380
X86580Y100380
X85780Y97780
X77780Y99780
X53380Y49380
X52580Y46780
X50480Y49380
X49680Y47480
X49280Y45480
X49980Y43480
X49280Y41780
X47280Y45480
X46480Y45580
X44580Y46380
X44580Y48780
X45880Y43380
X35980Y46780
X36780Y49380
X33880Y49380
X33080Y47480
X32680Y45480
X30680Y45480
X29880Y45580
X27980Y46380
X27980Y48780
X29280Y43380
X32680Y41780
X33380Y43480
X20180Y49580
X19380Y46980
X16480Y47680
X16080Y45680
X14080Y45680
X13280Y45780
X11380Y46580
X11380Y48980
X12680Y43580
X16080Y41980
X16780Y43680
X17280Y49580
X12880Y18080
T02
X10080Y14180
X10080Y15180
X13480Y15180
X13480Y14180
X16580Y14180
X16580Y15180
X10880Y22280
X9880Y22280
X9880Y39680
X9880Y40680
X13280Y40680
X13280Y39680
X16380Y39680
X16380Y40680
X10680Y47780
X9680Y47780
X9880Y65280
X9880Y66280
X13280Y66280
X13280Y65280
X16380Y65280
X16380Y66280
X10680Y73380
X9680Y73380
X9680Y90580
X9680Y91580
X13080Y91580
X13080Y90580
X16180Y90580
X16180Y91580
X10480Y98680
X9480Y98680
X26080Y98480
X27080Y98480
X26280Y91380
X26280Y90380
X29680Y90380
X29680Y91380
X32780Y91380
X32780Y90380
X42880Y90380
X42880Y91380
X46280Y91380
X46280Y90380
X49380Y90380
X49380Y91380
X43680Y98480
X42680Y98480
X59480Y98580
X60480Y98580
X59680Y91480
X59680Y90480
X63080Y90480
X63080Y91480
X66180Y91480
X66180Y90480
X76280Y90480
X76280Y91480
X79680Y91480
X79680Y90480
X82780Y90480
X82780Y91480
X77080Y98580
X76080Y98580
X77280Y73280
X76280Y73280
X76480Y66180
X76480Y65180
X79880Y65180
X79880Y66180
X82980Y66180
X82980Y65180
X77280Y47680
X76280Y47680
X76480Y40580
X76480Y39580
X79880Y39580
X79880Y40580
X82980Y40580
X82980Y39580
X77480Y22180
X76480Y22180
X76680Y15080
X76680Y14080
X80080Y14080
X80080Y15080
X83180Y15080
X83180Y14080
X66580Y14080
X66580Y15080
X63480Y15080
X63480Y14080
X60080Y14080
X60080Y15080
X59880Y22180
X60880Y22180
X49780Y14980
X49780Y13980
X46680Y13980
X46680Y14980
X43280Y14980
X43280Y13980
X33180Y13980
X33180Y14980
X30080Y14980
X30080Y13980
X26680Y13980
X26680Y14980
X26480Y22080
X27480Y22080
X26480Y39480
X26480Y40480
X29880Y40480
X29880Y39480
X32980Y39480
X32980Y40480
X27280Y47580
X26280Y47580
X26480Y65080
X26480Y66080
X29880Y66080
X29880Y65080
X32980Y65080
X32980Y66080
X27280Y73180
X26280Y73180
X42880Y73180
X43880Y73180
X43080Y66080
X43080Y65080
X46480Y65080
X46480Y66080
X49580Y66080
X49580Y65080
X59880Y65180
X59880Y66180
X63280Y66180
X63280Y65180
X66380Y65180
X66380Y66180
X60680Y73280
X59680Y73280
X59680Y47680
X60680Y47680
X59880Y40580
X59880Y39580
X63280Y39580
X63280Y40580
X66380Y40580
X66380Y39580
X49580Y39480
X49580Y40480
X46480Y40480
X46480Y39480
X43080Y39480
X43080Y40480
X42880Y47580
X43880Y47580
X44080Y22080
X43080Y22080
T03
X10287Y10373
X8873Y11787
X25473Y11587
X26887Y10173
X43487Y10173
X42073Y11587
X58873Y11687
X60287Y10273
X75473Y11687
X76887Y10273
X76687Y35773
X75273Y37187
X60087Y35773
X58673Y37187
X43287Y35673
X41873Y37087
X26687Y35673
X25273Y37087
X10087Y35873
X8673Y37287
X10087Y61473
X8673Y62887
X25273Y62687
X26687Y61273
X41873Y62687
X43287Y61273
X58673Y62787
X60087Y61373
X75273Y62787
X76687Y61373
X76487Y86673
X75073Y88087
X59887Y86673
X58473Y88087
X43087Y86573
X41673Y87987
X26487Y86573
X25073Y87987
X9887Y86773
X8473Y88187
T04
X12211Y27380
X14180Y27380
X16149Y27380
X28811Y27180
X30780Y27180
X32749Y27180
X45411Y27180
X47380Y27180
X49349Y27180
X62211Y27280
X64180Y27280
X66149Y27280
X78811Y27280
X80780Y27280
X82749Y27280
X82549Y52780
X80580Y52780
X78611Y52780
X65949Y52780
X63980Y52780
X62011Y52780
X49149Y52680
X47180Y52680
X45211Y52680
X32549Y52680
X30580Y52680
X28611Y52680
X15949Y52880
X13980Y52880
X12011Y52880
X28611Y78280
X30580Y78280
X32549Y78280
X45211Y78280
X47180Y78280
X49149Y78280
X62011Y78380
X63980Y78380
X65949Y78380
X78611Y78380
X80580Y78380
X82549Y78380
X82349Y103680
X80380Y103680
X78411Y103680
X65749Y103680
X63780Y103680
X61811Y103680
X48949Y103580
X46980Y103580
X45011Y103580
X32349Y103580
X30380Y103580
X28411Y103580
X15749Y103780
X13780Y103780
X11811Y103780
X12011Y78480
X13980Y78480
X15949Y78480
T05
X15180Y17580
X31780Y17380
X48380Y17380
X65180Y17480
X81780Y17480
X81580Y42980
X64980Y42980
X48180Y42880
X31580Y42880
X14980Y43080
X14980Y68680
X31580Y68480
X48180Y68480
X64980Y68580
X81580Y68580
X81380Y93880
X64780Y93880
X47980Y93780
X31380Y93780
X14780Y93980
T06
X12340Y11280
X13900Y11280
X15460Y11280
X17020Y11280
X28940Y11080
X30500Y11080
X32060Y11080
X33620Y11080
X45540Y11080
X47100Y11080
X48660Y11080
X50220Y11080
X62340Y11180
X63900Y11180
X65460Y11180
X67020Y11180
X78940Y11180
X80500Y11180
X82060Y11180
X83620Y11180
X83420Y36680
X81860Y36680
X80300Y36680
X78740Y36680
X66820Y36680
X65260Y36680
X63700Y36680
X62140Y36680
X50020Y36580
X48460Y36580
X46900Y36580
X45340Y36580
X33420Y36580
X31860Y36580
X30300Y36580
X28740Y36580
X16820Y36780
X15260Y36780
X13700Y36780
X12140Y36780
X28740Y62180
X30300Y62180
X31860Y62180
X33420Y62180
X45340Y62180
X46900Y62180
X48460Y62180
X50020Y62180
X62140Y62280
X63700Y62280
X65260Y62280
X66820Y62280
X78740Y62280
X80300Y62280
X81860Y62280
X83420Y62280
X83220Y87580
X81660Y87580
X80100Y87580
X78540Y87580
X66620Y87580
X65060Y87580
X63500Y87580
X61940Y87580
X49820Y87480
X48260Y87480
X46700Y87480
X45140Y87480
X33220Y87480
X31660Y87480
X30100Y87480
X28540Y87480
X16620Y87680
X15060Y87680
X13500Y87680
X11940Y87680
X12140Y62380
X13700Y62380
X15260Y62380
X16820Y62380
T07
X8480Y9680
X20280Y9680
X25080Y9480
X36880Y9480
X41680Y9480
X53480Y9480
X58480Y9580
X70280Y9580
X75080Y9580
X86880Y9580
X86880Y27980
X86680Y35080
X74880Y35080
X70080Y35080
X70280Y27980
X75080Y27980
X58480Y27980
X53480Y27880
X53280Y34980
X58280Y35080
X58280Y53480
X53280Y53380
X53280Y60580
X58280Y60680
X70080Y60680
X74880Y60680
X74880Y53480
X70080Y53480
X86680Y53480
X86680Y60680
X86680Y79080
X86480Y85980
X74880Y79080
X70080Y79080
X69880Y85980
X74680Y85980
X74680Y104380
X69880Y104380
X58080Y104380
X53080Y104280
X41280Y104280
X36480Y104280
X24680Y104280
X19880Y104480
X8080Y104480
X8080Y86080
X8280Y79180
X20080Y79180
X24880Y78980
X24680Y85880
X19880Y86080
X36480Y85880
X41280Y85880
X41480Y78980
X36680Y78980
X36680Y60580
X41480Y60580
X41480Y53380
X36680Y53380
X24880Y53380
X20080Y53580
X20080Y60780
X24880Y60580
X8280Y60780
X8280Y53580
X8280Y35180
X8480Y28080
X20280Y28080
X25080Y27880
X24880Y34980
X20080Y35180
X36680Y34980
X41480Y34980
X41680Y27880
X36880Y27880
X53280Y78980
X58280Y79080
X58080Y85980
X53080Y85880
X86480Y104380
T08
X4580Y4180
X42580Y4180
X89980Y4880
X89480Y110680
X51880Y111080
X4980Y110680
M30
