%
M48
M72
T01C0.0236
T02C0.0320
T03C0.0400
T04C0.0472
T05C0.0512
T06C0.0660
T07C0.1102
%
T01
X10760Y5100
X14560Y7900
X15460Y8900
X17960Y10300
X12360Y8500
X16460Y4700
X18360Y3900
X16160Y1700
X15260Y1800
T02
X9460Y4500
X8460Y4500
X8460Y7900
X9460Y7900
X9460Y11300
X8460Y11300
X16560Y11500
X16560Y10500
T03
X6067Y12507
X4652Y11093
T04
X21660Y9169
X21660Y7200
X21660Y5231
T05
X11860Y6200
T06
X5560Y5920
X5560Y4360
X5560Y7480
X5560Y9040
T07
X3960Y1100
X22360Y1100
X22360Y12900
X3960Y12900
M30
