G75*
%MOIN*%
%OFA0B0*%
%FSLAX25Y25*%
%IPPOS*%
%LPD*%
%AMOC8*
5,1,8,0,0,1.08239X$1,22.5*
%
%ADD10C,0.00800*%
%ADD11C,0.00600*%
%ADD12R,0.03937X0.04331*%
%ADD13R,0.04331X0.03937*%
%ADD14R,0.07087X0.06693*%
%ADD15R,0.06693X0.07087*%
%ADD16R,0.02362X0.08661*%
%ADD17R,0.24409X0.21260*%
%ADD18R,0.06299X0.03937*%
%ADD19C,0.09900*%
%ADD20OC8,0.06600*%
%ADD21C,0.10000*%
%ADD22R,0.06299X0.07098*%
%ADD23C,0.06000*%
%ADD24C,0.01600*%
%ADD25C,0.03200*%
%ADD26C,0.10000*%
%ADD27C,0.03962*%
%ADD28C,0.07600*%
%ADD29C,0.08600*%
%ADD30C,0.07000*%
D10*
X0152535Y0126469D02*
X0155604Y0123400D01*
X0158673Y0126469D01*
X0158673Y0132608D01*
X0161743Y0131073D02*
X0161743Y0129539D01*
X0163277Y0128004D01*
X0166347Y0128004D01*
X0167881Y0126469D01*
X0167881Y0124935D01*
X0166347Y0123400D01*
X0163277Y0123400D01*
X0161743Y0124935D01*
X0152535Y0126469D02*
X0152535Y0132608D01*
X0161743Y0131073D02*
X0163277Y0132608D01*
X0166347Y0132608D01*
X0167881Y0131073D01*
X0170951Y0128004D02*
X0177089Y0128004D01*
X0180159Y0131073D02*
X0180159Y0124935D01*
X0181693Y0123400D01*
X0184762Y0123400D01*
X0186297Y0124935D01*
X0189366Y0124935D02*
X0190901Y0123400D01*
X0193970Y0123400D01*
X0195505Y0124935D01*
X0195505Y0128004D01*
X0193970Y0129539D01*
X0190901Y0129539D01*
X0189366Y0128004D01*
X0189366Y0124935D01*
X0186297Y0131073D02*
X0184762Y0132608D01*
X0181693Y0132608D01*
X0180159Y0131073D01*
X0198574Y0129539D02*
X0198574Y0123400D01*
X0198574Y0126469D02*
X0201644Y0129539D01*
X0203178Y0129539D01*
X0206247Y0129539D02*
X0210851Y0129539D01*
X0212386Y0128004D01*
X0212386Y0124935D01*
X0210851Y0123400D01*
X0206247Y0123400D01*
X0206247Y0120331D02*
X0206247Y0129539D01*
D11*
X0169731Y0011705D02*
X0166529Y0008503D01*
X0170799Y0008503D01*
X0169731Y0011705D02*
X0169731Y0005300D01*
X0164353Y0006368D02*
X0163286Y0005300D01*
X0161151Y0005300D01*
X0160083Y0006368D01*
X0164353Y0010638D01*
X0164353Y0006368D01*
X0160083Y0006368D02*
X0160083Y0010638D01*
X0161151Y0011705D01*
X0163286Y0011705D01*
X0164353Y0010638D01*
X0157908Y0008503D02*
X0153638Y0008503D01*
X0151476Y0005300D02*
X0149341Y0005300D01*
X0150408Y0005300D02*
X0150408Y0011705D01*
X0149341Y0011705D01*
X0147165Y0011705D02*
X0147165Y0005300D01*
X0143963Y0005300D01*
X0142895Y0006368D01*
X0142895Y0008503D01*
X0143963Y0009570D01*
X0147165Y0009570D01*
D12*
X0170249Y0017000D03*
X0176942Y0017000D03*
X0181595Y0024654D03*
X0181595Y0031346D03*
X0194595Y0031346D03*
X0194595Y0024654D03*
X0206595Y0024654D03*
X0206595Y0031346D03*
X0136942Y0084000D03*
X0130249Y0084000D03*
X0130942Y0094000D03*
X0124249Y0094000D03*
D13*
X0113942Y0090000D03*
X0107249Y0090000D03*
X0132595Y0074346D03*
X0132595Y0067654D03*
X0140249Y0060000D03*
X0146942Y0060000D03*
X0133942Y0053000D03*
X0127249Y0053000D03*
X0157595Y0031346D03*
X0157595Y0024654D03*
X0170595Y0024654D03*
X0170595Y0031346D03*
X0145595Y0085654D03*
X0145595Y0092346D03*
X0163249Y0088000D03*
X0169942Y0088000D03*
X0188595Y0098654D03*
X0188595Y0105346D03*
D14*
X0200524Y0112000D03*
X0216666Y0112000D03*
D15*
X0187595Y0082071D03*
X0187595Y0065929D03*
X0107595Y0059929D03*
X0107595Y0076071D03*
D16*
X0154095Y0077236D03*
X0159095Y0077236D03*
X0164095Y0077236D03*
X0169095Y0077236D03*
X0169095Y0056764D03*
X0164095Y0056764D03*
X0159095Y0056764D03*
X0154095Y0056764D03*
D17*
X0114753Y0027000D03*
X0116753Y0112000D03*
D18*
X0145493Y0103024D03*
X0145493Y0120976D03*
X0143493Y0035976D03*
X0143493Y0018024D03*
D19*
X0060545Y0043600D02*
X0050645Y0043600D01*
X0050645Y0059200D02*
X0060545Y0059200D01*
X0060545Y0074800D02*
X0050645Y0074800D01*
X0050645Y0090400D02*
X0060545Y0090400D01*
D20*
X0084595Y0079000D03*
X0094595Y0079000D03*
X0094595Y0045000D03*
X0084595Y0045000D03*
X0165595Y0105000D03*
X0165595Y0115000D03*
X0094595Y0113000D03*
X0084595Y0113000D03*
D21*
X0216595Y0091685D03*
X0216595Y0072000D03*
X0216595Y0052315D03*
D22*
X0206194Y0017000D03*
X0194997Y0017000D03*
D23*
X0048645Y0108808D02*
X0044403Y0113050D01*
X0058545Y0127192D02*
X0062788Y0122950D01*
D24*
X0107249Y0090000D02*
X0107595Y0089654D01*
X0123595Y0085654D02*
X0123595Y0085000D01*
X0107666Y0076000D02*
X0107595Y0076071D01*
X0107595Y0051000D02*
X0108666Y0049929D01*
X0169095Y0056764D02*
X0169595Y0056264D01*
X0170249Y0017000D02*
X0170595Y0016654D01*
X0165595Y0115000D02*
X0163595Y0115000D01*
D25*
X0162595Y0115000D01*
X0156595Y0109000D01*
X0156595Y0098000D01*
X0158595Y0096000D01*
X0165595Y0096000D01*
X0169595Y0092000D01*
X0169595Y0088346D01*
X0169942Y0088000D01*
X0169095Y0087154D01*
X0169095Y0077236D01*
X0164095Y0077236D02*
X0164095Y0067500D01*
X0173024Y0067500D01*
X0187595Y0082071D01*
X0165595Y0104071D01*
X0165595Y0105000D01*
X0172595Y0105000D01*
X0180595Y0113000D01*
X0199524Y0113000D01*
X0200524Y0112000D01*
X0188595Y0105346D02*
X0181942Y0105346D01*
X0179595Y0103000D01*
X0188595Y0098654D02*
X0189942Y0098654D01*
X0216595Y0072000D01*
X0202981Y0065929D02*
X0216595Y0052315D01*
X0202981Y0065929D02*
X0187595Y0065929D01*
X0169095Y0056764D02*
X0169095Y0053500D01*
X0183595Y0039000D01*
X0181249Y0031346D02*
X0175595Y0037000D01*
X0163249Y0037000D01*
X0162922Y0036673D01*
X0155595Y0044000D01*
X0137595Y0044000D01*
X0133942Y0047654D01*
X0133942Y0053000D01*
X0133942Y0056346D01*
X0137595Y0060000D01*
X0140249Y0060000D01*
X0137595Y0060000D02*
X0136595Y0060000D01*
X0132595Y0064000D01*
X0132595Y0067654D01*
X0132249Y0068000D01*
X0120595Y0068000D01*
X0112595Y0076000D01*
X0107666Y0076000D01*
X0107595Y0076071D02*
X0107595Y0089654D01*
X0113942Y0090000D02*
X0113942Y0083654D01*
X0123595Y0074000D01*
X0132249Y0074000D01*
X0132595Y0074346D01*
X0135922Y0077673D01*
X0142595Y0071000D01*
X0150595Y0071000D01*
X0154095Y0074500D01*
X0154095Y0077236D01*
X0159095Y0077236D02*
X0159095Y0082500D01*
X0154595Y0087000D01*
X0154595Y0089000D01*
X0145595Y0085654D02*
X0145595Y0079000D01*
X0136942Y0078693D02*
X0136942Y0084000D01*
X0136942Y0078693D02*
X0135922Y0077673D01*
X0130249Y0084000D02*
X0128595Y0085654D01*
X0124249Y0085654D01*
X0123595Y0085000D01*
X0124249Y0085654D02*
X0124249Y0094000D01*
X0130942Y0094000D02*
X0143942Y0094000D01*
X0145595Y0092346D01*
X0145493Y0092449D01*
X0145493Y0103024D01*
X0163249Y0088000D02*
X0164095Y0087154D01*
X0164095Y0077236D01*
X0164095Y0067500D02*
X0159595Y0063000D01*
X0159595Y0057264D01*
X0159095Y0056764D01*
X0154095Y0056764D02*
X0150859Y0060000D01*
X0146942Y0060000D01*
X0164095Y0056764D02*
X0164095Y0047500D01*
X0164595Y0047000D01*
X0162922Y0036673D02*
X0157595Y0031346D01*
X0157595Y0024654D02*
X0156249Y0024654D01*
X0152095Y0020500D01*
X0152095Y0018500D01*
X0152595Y0018000D01*
X0161595Y0017000D02*
X0170249Y0017000D01*
X0170595Y0017346D01*
X0170595Y0024654D01*
X0181595Y0024654D01*
X0194595Y0024654D01*
X0206595Y0024654D01*
X0206942Y0031000D02*
X0206595Y0031346D01*
X0194595Y0031346D01*
X0181595Y0031346D01*
X0181249Y0031346D01*
X0170595Y0031346D02*
X0170249Y0031000D01*
X0167595Y0031000D01*
X0161249Y0024654D01*
X0157595Y0024654D01*
X0176942Y0017000D02*
X0194997Y0017000D01*
X0206194Y0017000D02*
X0212595Y0017000D01*
X0215595Y0020000D01*
X0215595Y0028000D01*
X0212595Y0031000D01*
X0206942Y0031000D01*
X0127249Y0053000D02*
X0118595Y0053000D01*
X0115524Y0049929D01*
X0108666Y0049929D01*
X0107595Y0051000D02*
X0107595Y0059929D01*
X0107595Y0076071D02*
X0104666Y0079000D01*
X0094595Y0079000D01*
X0116753Y0112000D02*
X0116942Y0112189D01*
X0116942Y0114000D01*
X0115942Y0115000D01*
X0216595Y0111929D02*
X0216595Y0091685D01*
X0216595Y0111929D02*
X0216666Y0112000D01*
D26*
X0165595Y0115000D02*
X0164595Y0116000D01*
X0149595Y0116000D01*
X0145493Y0120102D01*
X0145493Y0120976D01*
X0116753Y0123843D02*
X0116753Y0112000D01*
X0116753Y0123843D02*
X0112595Y0128000D01*
X0067737Y0128000D01*
X0067492Y0127997D01*
X0067246Y0127988D01*
X0067001Y0127973D01*
X0066757Y0127952D01*
X0066513Y0127925D01*
X0066270Y0127892D01*
X0066027Y0127853D01*
X0065786Y0127808D01*
X0065546Y0127757D01*
X0065307Y0127700D01*
X0065070Y0127638D01*
X0064834Y0127569D01*
X0064600Y0127495D01*
X0064368Y0127415D01*
X0064138Y0127330D01*
X0063910Y0127239D01*
X0063685Y0127142D01*
X0063461Y0127040D01*
X0063241Y0126932D01*
X0063023Y0126819D01*
X0062808Y0126701D01*
X0062596Y0126577D01*
X0062387Y0126449D01*
X0062181Y0126315D01*
X0061979Y0126176D01*
X0061780Y0126032D01*
X0061585Y0125883D01*
X0061393Y0125730D01*
X0061205Y0125572D01*
X0061021Y0125410D01*
X0060842Y0125242D01*
X0060666Y0125071D01*
X0079595Y0111000D02*
X0079595Y0084000D01*
X0080095Y0083500D01*
X0079595Y0083000D01*
X0079595Y0080000D01*
X0079595Y0076000D01*
X0078395Y0074800D01*
X0055595Y0074800D01*
X0055595Y0059200D01*
X0043595Y0043000D02*
X0037595Y0048000D01*
X0037595Y0104000D01*
X0043110Y0109515D01*
X0043110Y0109514D02*
X0043207Y0109608D01*
X0043307Y0109700D01*
X0043409Y0109789D01*
X0043514Y0109875D01*
X0043621Y0109958D01*
X0043730Y0110038D01*
X0043842Y0110114D01*
X0043955Y0110188D01*
X0044071Y0110258D01*
X0044189Y0110326D01*
X0044308Y0110389D01*
X0044429Y0110450D01*
X0044552Y0110507D01*
X0044676Y0110560D01*
X0044802Y0110611D01*
X0044929Y0110657D01*
X0045058Y0110700D01*
X0045187Y0110739D01*
X0045318Y0110775D01*
X0045450Y0110807D01*
X0045582Y0110835D01*
X0045715Y0110860D01*
X0045849Y0110881D01*
X0045983Y0110898D01*
X0046118Y0110911D01*
X0046253Y0110920D01*
X0046389Y0110926D01*
X0046524Y0110928D01*
X0079595Y0076000D02*
X0079595Y0051000D01*
X0080095Y0050500D01*
X0079595Y0050000D02*
X0079595Y0046000D01*
X0079595Y0032000D01*
X0085595Y0026000D01*
X0113753Y0026000D01*
X0055595Y0043600D02*
X0054995Y0043000D01*
X0043595Y0043000D01*
D27*
X0107595Y0051000D03*
X0145595Y0079000D03*
X0154595Y0089000D03*
X0179595Y0103000D03*
X0123595Y0085000D03*
X0164595Y0047000D03*
X0183595Y0039000D03*
X0161595Y0017000D03*
X0152595Y0018000D03*
D28*
X0057095Y0022500D02*
X0054995Y0024600D01*
X0054995Y0043000D01*
X0079595Y0046000D02*
X0080595Y0045000D01*
X0084595Y0045000D01*
X0113753Y0026000D02*
X0114753Y0027000D01*
X0134595Y0020000D02*
X0134595Y0034000D01*
X0136572Y0035976D01*
X0143493Y0035976D01*
X0134595Y0020000D02*
X0136572Y0018024D01*
X0143493Y0018024D01*
X0134469Y0008000D01*
X0073595Y0008000D01*
X0057095Y0022500D01*
D29*
X0079595Y0050000D02*
X0080095Y0050500D01*
X0080595Y0079000D02*
X0079595Y0080000D01*
X0080595Y0079000D02*
X0084595Y0079000D01*
X0079595Y0111000D02*
X0081595Y0113000D01*
X0084595Y0113000D01*
D30*
X0115194Y0110441D02*
X0116753Y0112000D01*
M02*
